<svg width="291" height="60" viewBox="0 0 291 60" fill="none" xmlns="http://www.w3.org/2000/svg">
<rect x="1" y="1" width="289" height="58" fill="#F9F8F5"/>
<path d="M17.656 38V21.248H22.816C24.032 21.248 25.128 21.448 26.104 21.848C27.08 22.232 27.912 22.792 28.6 23.528C29.288 24.248 29.816 25.12 30.184 26.144C30.552 27.168 30.736 28.312 30.736 29.576C30.736 30.856 30.552 32.016 30.184 33.056C29.816 34.08 29.288 34.968 28.6 35.72C27.912 36.456 27.08 37.024 26.104 37.424C25.128 37.808 24.032 38 22.816 38H17.656ZM20.2 35.84H22.816C23.904 35.84 24.84 35.584 25.624 35.072C26.408 34.544 27.008 33.808 27.424 32.864C27.856 31.92 28.072 30.824 28.072 29.576C28.072 28.312 27.856 27.224 27.424 26.312C27.008 25.384 26.408 24.672 25.624 24.176C24.84 23.664 23.904 23.408 22.816 23.408H20.2V35.84ZM43.0094 30.464V28.88C43.0094 28.192 42.8014 27.64 42.3854 27.224C41.9694 26.792 41.3694 26.576 40.5854 26.576C39.5934 26.576 38.7054 26.952 37.9214 27.704C37.1374 28.44 36.5134 29.568 36.0494 31.088L35.7134 28.64C36.0654 27.728 36.4894 26.968 36.9854 26.36C37.4974 25.752 38.0814 25.296 38.7374 24.992C39.4094 24.672 40.1454 24.512 40.9454 24.512C42.2734 24.512 43.3534 24.896 44.1854 25.664C45.0174 26.416 45.4334 27.488 45.4334 28.88V30.464H43.0094ZM34.0814 38V24.8H36.3614L36.5054 27.8V38H34.0814ZM54.9948 38.288C53.6348 38.288 52.4588 38.008 51.4668 37.448C50.4908 36.888 49.7388 36.096 49.2108 35.072C48.6828 34.032 48.4188 32.808 48.4188 31.4C48.4188 29.96 48.6828 28.736 49.2108 27.728C49.7388 26.704 50.4908 25.912 51.4668 25.352C52.4588 24.792 53.6428 24.512 55.0188 24.512C57.0668 24.512 58.6748 25.128 59.8428 26.36C61.0108 27.576 61.5948 29.256 61.5948 31.4C61.5948 32.808 61.3308 34.032 60.8028 35.072C60.2748 36.096 59.5148 36.888 58.5228 37.448C57.5468 38.008 56.3708 38.288 54.9948 38.288ZM55.0188 36.272C56.2988 36.272 57.3068 35.84 58.0428 34.976C58.7948 34.096 59.1708 32.904 59.1708 31.4C59.1708 29.88 58.7948 28.688 58.0428 27.824C57.3068 26.96 56.2988 26.528 55.0188 26.528C53.7228 26.528 52.7068 26.96 51.9708 27.824C51.2348 28.688 50.8668 29.88 50.8668 31.4C50.8668 32.904 51.2348 34.096 51.9708 34.976C52.7068 35.84 53.7228 36.272 55.0188 36.272ZM71.3961 24.512C72.5801 24.512 73.6121 24.808 74.4921 25.4C75.3881 25.976 76.0921 26.784 76.6041 27.824C77.1161 28.864 77.3721 30.056 77.3721 31.4C77.3721 32.728 77.1161 33.912 76.6041 34.952C76.0921 35.992 75.3881 36.808 74.4921 37.4C73.6121 37.992 72.5801 38.288 71.3961 38.288C70.5001 38.288 69.6761 38.104 68.9241 37.736C68.1881 37.368 67.5801 36.864 67.1001 36.224V42.272H64.6761V24.8H66.9801L67.0521 26.6C67.5321 25.96 68.1481 25.456 68.9001 25.088C69.6521 24.704 70.4841 24.512 71.3961 24.512ZM70.8681 36.248C71.6841 36.248 72.3961 36.04 73.0041 35.624C73.6121 35.208 74.0841 34.64 74.4201 33.92C74.7561 33.184 74.9241 32.344 74.9241 31.4C74.9241 30.44 74.7561 29.6 74.4201 28.88C74.0841 28.144 73.6121 27.576 73.0041 27.176C72.3961 26.76 71.6841 26.552 70.8681 26.552C70.0361 26.552 69.2761 26.792 68.5881 27.272C67.9161 27.736 67.4201 28.376 67.1001 29.192V33.56C67.4201 34.392 67.9161 35.048 68.5881 35.528C69.2761 36.008 70.0361 36.248 70.8681 36.248ZM106.215 38V28.352C106.215 27.776 106.111 27.328 105.903 27.008C105.711 26.688 105.407 26.528 104.991 26.528C104.415 26.528 103.895 26.896 103.431 27.632C102.983 28.368 102.671 29.528 102.495 31.112L102.279 29.072C102.327 27.632 102.663 26.512 103.287 25.712C103.927 24.912 104.711 24.512 105.639 24.512C106.503 24.512 107.183 24.832 107.679 25.472C108.191 26.096 108.447 26.992 108.447 28.16V38H106.215ZM95.2469 38V24.8H97.3829L97.4789 27.368V38H95.2469ZM100.743 38V28.352C100.743 27.744 100.631 27.288 100.407 26.984C100.199 26.68 99.8789 26.528 99.4469 26.528C98.8389 26.528 98.3189 26.912 97.8869 27.68C97.4549 28.448 97.1509 29.592 96.9749 31.112L96.9269 29C96.9589 28.056 97.1269 27.248 97.4309 26.576C97.7349 25.904 98.1269 25.392 98.6069 25.04C99.0869 24.688 99.5989 24.512 100.143 24.512C101.039 24.512 101.727 24.84 102.207 25.496C102.703 26.136 102.951 27.016 102.951 28.136V38H100.743ZM117.6 38.288C116.24 38.288 115.064 38.016 114.072 37.472C113.08 36.912 112.32 36.12 111.792 35.096C111.264 34.056 111 32.816 111 31.376C111 29.936 111.264 28.704 111.792 27.68C112.336 26.656 113.104 25.872 114.096 25.328C115.104 24.784 116.304 24.512 117.696 24.512C119.824 24.512 121.408 25.104 122.448 26.288C123.488 27.456 123.944 29.064 123.816 31.112H112.92L112.944 29.288L121.344 29.312C121.28 28.464 120.912 27.784 120.24 27.272C119.568 26.76 118.72 26.504 117.696 26.504C116.32 26.504 115.264 26.936 114.528 27.8C113.792 28.664 113.424 29.888 113.424 31.472C113.424 32.416 113.584 33.256 113.904 33.992C114.24 34.712 114.72 35.272 115.344 35.672C115.968 36.072 116.72 36.272 117.6 36.272C118.64 36.272 119.504 36.024 120.192 35.528C120.896 35.032 121.328 34.36 121.488 33.512H123.912C123.704 35 123.04 36.168 121.92 37.016C120.8 37.864 119.36 38.288 117.6 38.288ZM152.131 38L152.035 35V29.36C152.035 28.416 151.723 27.68 151.099 27.152C150.491 26.608 149.651 26.336 148.579 26.336C147.539 26.336 146.691 26.576 146.035 27.056C145.379 27.52 145.019 28.168 144.955 29H142.579C142.659 28.056 142.963 27.256 143.491 26.6C144.019 25.928 144.723 25.416 145.603 25.064C146.483 24.696 147.499 24.512 148.651 24.512C149.835 24.512 150.859 24.712 151.723 25.112C152.587 25.496 153.251 26.056 153.715 26.792C154.195 27.528 154.435 28.424 154.435 29.48V38H152.131ZM147.355 38.288C146.491 38.288 145.731 38.136 145.075 37.832C144.419 37.512 143.907 37.064 143.539 36.488C143.171 35.896 142.987 35.208 142.987 34.424C142.987 33.064 143.507 32.008 144.547 31.256C145.603 30.504 147.075 30.128 148.963 30.128H152.347V31.928H148.867C147.779 31.928 146.923 32.136 146.299 32.552C145.691 32.968 145.387 33.552 145.387 34.304C145.387 34.928 145.603 35.416 146.035 35.768C146.483 36.12 147.083 36.296 147.835 36.296C148.795 36.296 149.643 36.04 150.379 35.528C151.131 35 151.739 34.28 152.203 33.368L152.467 35.144C152.051 36.152 151.411 36.928 150.547 37.472C149.683 38.016 148.619 38.288 147.355 38.288ZM178.694 38V20.36H181.118V38H178.694ZM173.822 38V36.032H186.014V38H173.822ZM175.574 22.328V20.36H179.894V22.328H175.574ZM194.423 38V24.8H196.847V38H194.423ZM189.551 38V36.032H201.383V38H189.551ZM191.303 26.768V24.8H195.623V26.768H191.303ZM194.255 22.544V19.928H196.967V22.544H194.255ZM214.665 38V29.672C214.665 28.744 214.401 28 213.873 27.44C213.345 26.864 212.657 26.576 211.809 26.576C210.833 26.576 209.961 26.936 209.193 27.656C208.441 28.36 207.841 29.464 207.393 30.968L207.009 28.256C207.505 27.008 208.217 26.072 209.145 25.448C210.089 24.824 211.113 24.512 212.217 24.512C213.209 24.512 214.065 24.728 214.785 25.16C215.521 25.576 216.089 26.16 216.489 26.912C216.889 27.664 217.089 28.552 217.089 29.576V38H214.665ZM205.257 38V24.8H207.561L207.681 27.776V38H205.257ZM226.866 38.288C225.506 38.288 224.33 38.016 223.338 37.472C222.346 36.912 221.586 36.12 221.058 35.096C220.53 34.056 220.266 32.816 220.266 31.376C220.266 29.936 220.53 28.704 221.058 27.68C221.602 26.656 222.37 25.872 223.362 25.328C224.37 24.784 225.57 24.512 226.962 24.512C229.09 24.512 230.674 25.104 231.714 26.288C232.754 27.456 233.21 29.064 233.082 31.112H222.186L222.21 29.288L230.61 29.312C230.546 28.464 230.178 27.784 229.506 27.272C228.834 26.76 227.986 26.504 226.962 26.504C225.586 26.504 224.53 26.936 223.794 27.8C223.058 28.664 222.69 29.888 222.69 31.472C222.69 32.416 222.85 33.256 223.17 33.992C223.506 34.712 223.986 35.272 224.61 35.672C225.234 36.072 225.986 36.272 226.866 36.272C227.906 36.272 228.77 36.024 229.458 35.528C230.162 35.032 230.594 34.36 230.754 33.512H233.178C232.97 35 232.306 36.168 231.186 37.016C230.066 37.864 228.626 38.288 226.866 38.288Z" fill="#212121"/>
<path d="M263.426 20.6909L272.741 30.0063L263.426 39.3216M271.447 30.0063H252.558" stroke="#212121" stroke-width="2" stroke-miterlimit="10" stroke-linecap="square"/>
<rect x="1" y="1" width="289" height="58" stroke="#F9F8F5" stroke-width="2"/>
</svg>
