<svg width="1300" height="120" viewBox="0 0 1300 120" fill="none" xmlns="http://www.w3.org/2000/svg">
    <g id="mail-dark">
        <path
            d="M33.6 95.2C27.8 95.2 22.7667 94.0333 18.5 91.7C14.3 89.3667 11.0667 86.0333 8.8 81.7C6.6 77.3667 5.5 72.2333 5.5 66.3C5.5 60.2333 6.66667 55.0667 9 50.8C11.4 46.4667 14.7 43.1667 18.9 40.9C23.1667 38.5667 28.1667 37.4 33.9 37.4C38.7667 37.4 43.1 38.3 46.9 40.1C50.7 41.8333 53.7333 44.2667 56 47.4C58.2667 50.5333 59.5333 54.2667 59.8 58.6H46C45.4667 55.3333 44.1333 52.8667 42 51.2C39.9333 49.5333 37.2333 48.7 33.9 48.7C31.0333 48.7 28.4667 49.4 26.2 50.8C24 52.1333 22.3 54.1 21.1 56.7C19.9 59.3 19.3 62.5 19.3 66.3C19.3 71.9 20.6333 76.2667 23.3 79.4C26.0333 82.5333 29.4667 84.1 33.6 84.1C35.7333 84.1 37.6667 83.7 39.4 82.9C41.1333 82.1 42.6 80.9667 43.8 79.5C45 77.9667 45.8333 76.2333 46.3 74.3H60.1C59.6333 78.5667 58.2 82.2667 55.8 85.4C53.4 88.4667 50.2667 90.8667 46.4 92.6C42.6 94.3333 38.3333 95.2 33.6 95.2ZM97.5391 95.2C91.6724 95.2 86.6057 94.0333 82.3391 91.7C78.1391 89.3667 74.9057 86.0667 72.6391 81.8C70.4391 77.4667 69.3391 72.3 69.3391 66.3C69.3391 60.3 70.4391 55.1667 72.6391 50.9C74.9057 46.5667 78.1391 43.2333 82.3391 40.9C86.6057 38.5667 91.6724 37.4 97.5391 37.4C106.339 37.4 113.206 39.9667 118.139 45.1C123.139 50.2333 125.639 57.3 125.639 66.3C125.639 72.3 124.506 77.4667 122.239 81.8C120.039 86.0667 116.839 89.3667 112.639 91.7C108.439 94.0333 103.406 95.2 97.5391 95.2ZM97.5391 84C102.006 84 105.506 82.4333 108.039 79.3C110.639 76.1 111.939 71.7667 111.939 66.3C111.939 60.7667 110.639 56.4333 108.039 53.3C105.506 50.1667 102.006 48.6 97.5391 48.6C93.0057 48.6 89.4391 50.1667 86.8391 53.3C84.3057 56.4333 83.0391 60.7667 83.0391 66.3C83.0391 71.7667 84.3057 76.1 86.8391 79.3C89.4391 82.4333 93.0057 84 97.5391 84ZM174.778 94V59.6C174.778 56.4 173.911 53.8333 172.178 51.9C170.511 49.9 168.278 48.9 165.478 48.9C162.278 48.9 159.378 50.0333 156.778 52.3C154.178 54.5 151.745 58.1333 149.478 63.2L147.478 50.6C149.878 46 152.911 42.6667 156.578 40.6C160.245 38.4667 164.111 37.4 168.178 37.4C172.378 37.4 175.978 38.3 178.978 40.1C182.045 41.9 184.411 44.4 186.078 47.6C187.745 50.7333 188.578 54.4667 188.578 58.8V94H174.778ZM136.978 94V38.6H150.178L150.678 49.3V94H136.978ZM232.117 94C228.517 94 225.351 93.2 222.617 91.6C219.951 90 217.884 87.7667 216.417 84.9C215.017 82.0333 214.317 78.7667 214.317 75.1V28.9L228.117 22.4V75.1C228.117 76.7667 228.351 78.2 228.817 79.4C229.284 80.5333 230.217 81.4 231.617 82C233.017 82.6 234.951 82.9 237.417 82.9H252.317V94H232.117ZM202.717 49.7V38.6H242.817V49.7H202.717ZM304.656 94L304.156 83.2V57.1C304.156 54.0333 303.09 51.6333 300.956 49.9C298.823 48.1667 295.89 47.3 292.156 47.3C288.49 47.3 285.523 48.1 283.256 49.7C280.99 51.2333 279.69 53.4 279.356 56.2H266.056C266.39 52.2667 267.69 48.9 269.956 46.1C272.29 43.3 275.39 41.1667 279.256 39.7C283.123 38.1667 287.59 37.4 292.656 37.4C297.79 37.4 302.223 38.2 305.956 39.8C309.756 41.4 312.69 43.7333 314.756 46.8C316.823 49.8 317.856 53.5 317.856 57.9V94H304.656ZM286.156 95.2C282.49 95.2 279.256 94.5 276.456 93.1C273.723 91.7 271.59 89.7667 270.056 87.3C268.523 84.8333 267.756 81.9667 267.756 78.7C267.756 73.0333 269.956 68.6333 274.356 65.5C278.756 62.3 284.89 60.7 292.756 60.7H305.656V70.4H292.356C288.89 70.4 286.156 71.0333 284.156 72.3C282.156 73.5667 281.156 75.4333 281.156 77.9C281.156 79.7 281.89 81.2333 283.356 82.5C284.823 83.7 286.823 84.3 289.356 84.3C292.756 84.3 295.79 83.4 298.456 81.6C301.123 79.8 303.323 77.3667 305.056 74.3L306.556 83.8C304.823 87.6 302.223 90.4667 298.756 92.4C295.29 94.2667 291.09 95.2 286.156 95.2ZM358.795 95.2C352.995 95.2 347.962 94.0333 343.695 91.7C339.495 89.3667 336.262 86.0333 333.995 81.7C331.795 77.3667 330.695 72.2333 330.695 66.3C330.695 60.2333 331.862 55.0667 334.195 50.8C336.595 46.4667 339.895 43.1667 344.095 40.9C348.362 38.5667 353.362 37.4 359.095 37.4C363.962 37.4 368.295 38.3 372.095 40.1C375.895 41.8333 378.929 44.2667 381.195 47.4C383.462 50.5333 384.729 54.2667 384.995 58.6H371.195C370.662 55.3333 369.329 52.8667 367.195 51.2C365.129 49.5333 362.429 48.7 359.095 48.7C356.229 48.7 353.662 49.4 351.395 50.8C349.195 52.1333 347.495 54.1 346.295 56.7C345.095 59.3 344.495 62.5 344.495 66.3C344.495 71.9 345.829 76.2667 348.495 79.4C351.229 82.5333 354.662 84.1 358.795 84.1C360.929 84.1 362.862 83.7 364.595 82.9C366.329 82.1 367.795 80.9667 368.995 79.5C370.195 77.9667 371.029 76.2333 371.495 74.3H385.295C384.829 78.5667 383.395 82.2667 380.995 85.4C378.595 88.4667 375.462 90.8667 371.595 92.6C367.795 94.3333 363.529 95.2 358.795 95.2ZM427.234 94C423.634 94 420.468 93.2 417.734 91.6C415.068 90 413.001 87.7667 411.534 84.9C410.134 82.0333 409.434 78.7667 409.434 75.1V28.9L423.234 22.4V75.1C423.234 76.7667 423.468 78.2 423.934 79.4C424.401 80.5333 425.334 81.4 426.734 82C428.134 82.6 430.068 82.9 432.534 82.9H447.434V94H427.234ZM397.834 49.7V38.6H437.934V49.7H397.834ZM487.773 111.2C481.573 111.2 476.14 109.4 471.473 105.8C466.873 102.267 463.307 97.2667 460.773 90.8C458.24 84.3333 456.973 76.7667 456.973 68.1C456.973 59.0333 458.307 51.1333 460.973 44.4C463.64 37.6667 467.407 32.4333 472.273 28.7C477.207 24.9667 482.94 23.1 489.473 23.1C495.34 23.1 500.44 24.7 504.773 27.9C509.173 31.1 512.573 35.6 514.973 41.4C517.373 47.1333 518.573 53.9 518.573 61.7C518.573 66.5 518.14 70.5667 517.273 73.9C516.407 77.2333 515.24 79.9333 513.773 82C512.307 84.0667 510.64 85.5667 508.773 86.5C506.907 87.4333 504.973 87.9 502.973 87.9H491.973L491.673 81.5C491.273 83.7 490.407 85.4667 489.073 86.8C487.74 88.1333 486.14 88.8 484.273 88.8C482.14 88.8 480.207 87.9 478.473 86.1C476.74 84.2333 475.34 81.6667 474.273 78.4C473.207 75.1333 472.673 71.3333 472.673 67C472.673 62.6 473.207 58.7667 474.273 55.5C475.34 52.2333 476.74 49.7333 478.473 48C480.207 46.2 482.14 45.3 484.273 45.3C486.14 45.3 487.74 45.9333 489.073 47.2C490.407 48.4667 491.273 50.2333 491.673 52.5L491.973 46.1H501.373V78.9H503.073C504.94 78.9 506.24 77.3333 506.973 74.2C507.773 71 508.173 66.8333 508.173 61.7C508.173 55.7 507.407 50.5667 505.873 46.3C504.34 41.9667 502.173 38.6333 499.373 36.3C496.573 33.9667 493.273 32.8 489.473 32.8C485.073 32.8 481.24 34.2333 477.973 37.1C474.707 39.9 472.173 43.9333 470.373 49.2C468.573 54.4667 467.673 60.7667 467.673 68.1C467.673 74.9667 468.507 80.9 470.173 85.9C471.907 90.9 474.307 94.7333 477.373 97.4C480.507 100.133 484.14 101.5 488.273 101.5H504.773L498.673 111.2H487.773ZM487.373 76.2C488.507 76.2 489.44 75.6 490.173 74.4C490.907 73.1333 491.307 71.7333 491.373 70.2V63.9C491.307 62.2333 490.907 60.8 490.173 59.6C489.44 58.4 488.507 57.8 487.373 57.8C486.04 57.8 484.973 58.6333 484.173 60.3C483.44 61.9667 483.073 64.2 483.073 67C483.073 69.7333 483.44 71.9667 484.173 73.7C484.973 75.3667 486.04 76.2 487.373 76.2ZM553.913 95.2C548.113 95.2 543.079 94.0333 538.813 91.7C534.613 89.3667 531.379 86.0333 529.113 81.7C526.913 77.3667 525.813 72.2333 525.813 66.3C525.813 60.2333 526.979 55.0667 529.313 50.8C531.713 46.4667 535.013 43.1667 539.213 40.9C543.479 38.5667 548.479 37.4 554.213 37.4C559.079 37.4 563.413 38.3 567.213 40.1C571.013 41.8333 574.046 44.2667 576.313 47.4C578.579 50.5333 579.846 54.2667 580.113 58.6H566.313C565.779 55.3333 564.446 52.8667 562.313 51.2C560.246 49.5333 557.546 48.7 554.213 48.7C551.346 48.7 548.779 49.4 546.513 50.8C544.313 52.1333 542.613 54.1 541.413 56.7C540.213 59.3 539.613 62.5 539.613 66.3C539.613 71.9 540.946 76.2667 543.613 79.4C546.346 82.5333 549.779 84.1 553.913 84.1C556.046 84.1 557.979 83.7 559.713 82.9C561.446 82.1 562.913 80.9667 564.113 79.5C565.313 77.9667 566.146 76.2333 566.613 74.3H580.413C579.946 78.5667 578.513 82.2667 576.113 85.4C573.713 88.4667 570.579 90.8667 566.713 92.6C562.913 94.3333 558.646 95.2 553.913 95.2ZM618.452 95.2C612.518 95.2 607.418 94.0333 603.152 91.7C598.952 89.3667 595.685 86.0333 593.352 81.7C591.085 77.3667 589.952 72.2333 589.952 66.3C589.952 60.2333 591.085 55.0667 593.352 50.8C595.685 46.4667 599.018 43.1667 603.352 40.9C607.685 38.5667 612.918 37.4 619.052 37.4C628.585 37.4 635.518 40.0667 639.852 45.4C644.252 50.7333 646.118 58.0667 645.452 67.4H600.952V57.8H631.452C631.185 54.9333 629.885 52.6333 627.552 50.9C625.285 49.1 622.418 48.2 618.952 48.2C613.818 48.2 609.985 49.8 607.452 53C604.985 56.2 603.752 60.8333 603.752 66.9C603.752 70.1 604.318 73 605.452 75.6C606.585 78.2 608.218 80.2667 610.352 81.8C612.552 83.3333 615.252 84.1 618.452 84.1C621.918 84.1 624.852 83.2333 627.252 81.5C629.718 79.7667 631.218 77.5333 631.752 74.8H645.452C644.718 81.0667 641.952 86.0333 637.152 89.7C632.352 93.3667 626.118 95.2 618.452 95.2ZM684.291 95.2C679.224 95.2 674.757 94.3667 670.891 92.7C667.024 90.9667 664.024 88.5333 661.891 85.4C659.824 82.2667 658.757 78.5333 658.691 74.2H671.491C671.424 77.6 672.524 80.2667 674.791 82.2C677.124 84.1333 680.257 85.1 684.191 85.1C687.257 85.1 689.724 84.5667 691.591 83.5C693.457 82.4333 694.391 80.9333 694.391 79C694.391 77.4 693.757 76.1333 692.491 75.2C691.224 74.2667 689.557 73.5333 687.491 73C685.491 72.4 683.257 71.8667 680.791 71.4C678.324 70.8667 675.857 70.2667 673.391 69.6C670.924 68.8667 668.657 67.9 666.591 66.7C664.524 65.5 662.857 63.9333 661.591 62C660.324 60 659.691 57.4667 659.691 54.4C659.691 51 660.657 48.0333 662.591 45.5C664.524 42.9667 667.224 41 670.691 39.6C674.224 38.1333 678.291 37.4 682.891 37.4C689.957 37.4 695.657 39.0333 699.991 42.3C704.324 45.5667 706.691 50.1 707.091 55.9H694.391C694.191 53.1667 693.057 51.1 690.991 49.7C688.991 48.2333 686.324 47.5 682.991 47.5C680.057 47.5 677.757 48.0667 676.091 49.2C674.424 50.2667 673.591 51.7667 673.591 53.7C673.591 55.2333 674.224 56.4333 675.491 57.3C676.757 58.1 678.391 58.7667 680.391 59.3C682.457 59.8333 684.724 60.3 687.191 60.7C689.724 61.1 692.191 61.6667 694.591 62.4C697.057 63.0667 699.291 64 701.291 65.2C703.357 66.3333 705.024 67.9 706.291 69.9C707.557 71.9 708.191 74.4667 708.191 77.6C708.191 83.1333 706.024 87.4667 701.691 90.6C697.357 93.6667 691.557 95.2 684.291 95.2ZM759.93 94L759.43 83.2V57.1C759.43 54.0333 758.363 51.6333 756.23 49.9C754.096 48.1667 751.163 47.3 747.43 47.3C743.763 47.3 740.796 48.1 738.53 49.7C736.263 51.2333 734.963 53.4 734.63 56.2H721.33C721.663 52.2667 722.963 48.9 725.23 46.1C727.563 43.3 730.663 41.1667 734.53 39.7C738.396 38.1667 742.863 37.4 747.93 37.4C753.063 37.4 757.496 38.2 761.23 39.8C765.03 41.4 767.963 43.7333 770.03 46.8C772.096 49.8 773.13 53.5 773.13 57.9V94H759.93ZM741.43 95.2C737.763 95.2 734.53 94.5 731.73 93.1C728.996 91.7 726.863 89.7667 725.33 87.3C723.796 84.8333 723.03 81.9667 723.03 78.7C723.03 73.0333 725.23 68.6333 729.63 65.5C734.03 62.3 740.163 60.7 748.03 60.7H760.93V70.4H747.63C744.163 70.4 741.43 71.0333 739.43 72.3C737.43 73.5667 736.43 75.4333 736.43 77.9C736.43 79.7 737.163 81.2333 738.63 82.5C740.096 83.7 742.096 84.3 744.63 84.3C748.03 84.3 751.063 83.4 753.73 81.6C756.396 79.8 758.596 77.3667 760.33 74.3L761.83 83.8C760.096 87.6 757.496 90.4667 754.03 92.4C750.563 94.2667 746.363 95.2 741.43 95.2ZM825.869 65V57.8C825.869 55.1333 825.135 53 823.669 51.4C822.202 49.7333 820.035 48.9 817.169 48.9C813.769 48.9 810.635 50.1 807.769 52.5C804.969 54.8333 802.435 58.7 800.169 64.1L798.569 52C800.235 48.8 802.102 46.1333 804.169 44C806.302 41.8 808.635 40.1667 811.169 39.1C813.769 37.9667 816.635 37.4 819.769 37.4C825.569 37.4 830.335 39.1333 834.069 42.6C837.802 46.0667 839.669 51.1333 839.669 57.8V65H825.869ZM788.769 94V38.6H801.869L802.569 49.4V94H788.769ZM879.108 95.2C873.308 95.2 868.274 94.0333 864.008 91.7C859.808 89.3667 856.574 86.0333 854.308 81.7C852.108 77.3667 851.008 72.2333 851.008 66.3C851.008 60.2333 852.174 55.0667 854.508 50.8C856.908 46.4667 860.208 43.1667 864.408 40.9C868.674 38.5667 873.674 37.4 879.408 37.4C884.274 37.4 888.608 38.3 892.408 40.1C896.208 41.8333 899.241 44.2667 901.508 47.4C903.774 50.5333 905.041 54.2667 905.308 58.6H891.508C890.974 55.3333 889.641 52.8667 887.508 51.2C885.441 49.5333 882.741 48.7 879.408 48.7C876.541 48.7 873.974 49.4 871.708 50.8C869.508 52.1333 867.808 54.1 866.608 56.7C865.408 59.3 864.808 62.5 864.808 66.3C864.808 71.9 866.141 76.2667 868.808 79.4C871.541 82.5333 874.974 84.1 879.108 84.1C881.241 84.1 883.174 83.7 884.908 82.9C886.641 82.1 888.108 80.9667 889.308 79.5C890.508 77.9667 891.341 76.2333 891.808 74.3H905.608C905.141 78.5667 903.708 82.2667 901.308 85.4C898.908 88.4667 895.774 90.8667 891.908 92.6C888.108 94.3333 883.841 95.2 879.108 95.2ZM955.047 94L954.547 83.2V57.1C954.547 54.0333 953.48 51.6333 951.347 49.9C949.214 48.1667 946.28 47.3 942.547 47.3C938.88 47.3 935.914 48.1 933.647 49.7C931.38 51.2333 930.08 53.4 929.747 56.2H916.447C916.78 52.2667 918.08 48.9 920.347 46.1C922.68 43.3 925.78 41.1667 929.647 39.7C933.514 38.1667 937.98 37.4 943.047 37.4C948.18 37.4 952.614 38.2 956.347 39.8C960.147 41.4 963.08 43.7333 965.147 46.8C967.214 49.8 968.247 53.5 968.247 57.9V94H955.047ZM936.547 95.2C932.88 95.2 929.647 94.5 926.847 93.1C924.114 91.7 921.98 89.7667 920.447 87.3C918.914 84.8333 918.147 81.9667 918.147 78.7C918.147 73.0333 920.347 68.6333 924.747 65.5C929.147 62.3 935.28 60.7 943.147 60.7H956.047V70.4H942.747C939.28 70.4 936.547 71.0333 934.547 72.3C932.547 73.5667 931.547 75.4333 931.547 77.9C931.547 79.7 932.28 81.2333 933.747 82.5C935.214 83.7 937.214 84.3 939.747 84.3C943.147 84.3 946.18 83.4 948.847 81.6C951.514 79.8 953.714 77.3667 955.447 74.3L956.947 83.8C955.214 87.6 952.614 90.4667 949.147 92.4C945.68 94.2667 941.48 95.2 936.547 95.2ZM1009.49 95.2C1004.42 95.2 999.953 94.3667 996.086 92.7C992.219 90.9667 989.219 88.5333 987.086 85.4C985.019 82.2667 983.953 78.5333 983.886 74.2H996.686C996.619 77.6 997.719 80.2667 999.986 82.2C1002.32 84.1333 1005.45 85.1 1009.39 85.1C1012.45 85.1 1014.92 84.5667 1016.79 83.5C1018.65 82.4333 1019.59 80.9333 1019.59 79C1019.59 77.4 1018.95 76.1333 1017.69 75.2C1016.42 74.2667 1014.75 73.5333 1012.69 73C1010.69 72.4 1008.45 71.8667 1005.99 71.4C1003.52 70.8667 1001.05 70.2667 998.586 69.6C996.119 68.8667 993.853 67.9 991.786 66.7C989.719 65.5 988.053 63.9333 986.786 62C985.519 60 984.886 57.4667 984.886 54.4C984.886 51 985.853 48.0333 987.786 45.5C989.719 42.9667 992.419 41 995.886 39.6C999.419 38.1333 1003.49 37.4 1008.09 37.4C1015.15 37.4 1020.85 39.0333 1025.19 42.3C1029.52 45.5667 1031.89 50.1 1032.29 55.9H1019.59C1019.39 53.1667 1018.25 51.1 1016.19 49.7C1014.19 48.2333 1011.52 47.5 1008.19 47.5C1005.25 47.5 1002.95 48.0667 1001.29 49.2C999.619 50.2667 998.786 51.7667 998.786 53.7C998.786 55.2333 999.419 56.4333 1000.69 57.3C1001.95 58.1 1003.59 58.7667 1005.59 59.3C1007.65 59.8333 1009.92 60.3 1012.39 60.7C1014.92 61.1 1017.39 61.6667 1019.79 62.4C1022.25 63.0667 1024.49 64 1026.49 65.2C1028.55 66.3333 1030.22 67.9 1031.49 69.9C1032.75 71.9 1033.39 74.4667 1033.39 77.6C1033.39 83.1333 1031.22 87.4667 1026.89 90.6C1022.55 93.6667 1016.75 95.2 1009.49 95.2ZM1073.13 95.2C1067.26 95.2 1062.19 94.0333 1057.93 91.7C1053.73 89.3667 1050.49 86.0667 1048.23 81.8C1046.03 77.4667 1044.93 72.3 1044.93 66.3C1044.93 60.3 1046.03 55.1667 1048.23 50.9C1050.49 46.5667 1053.73 43.2333 1057.93 40.9C1062.19 38.5667 1067.26 37.4 1073.13 37.4C1081.93 37.4 1088.79 39.9667 1093.73 45.1C1098.73 50.2333 1101.23 57.3 1101.23 66.3C1101.23 72.3 1100.09 77.4667 1097.83 81.8C1095.63 86.0667 1092.43 89.3667 1088.23 91.7C1084.03 94.0333 1078.99 95.2 1073.13 95.2ZM1073.13 84C1077.59 84 1081.09 82.4333 1083.63 79.3C1086.23 76.1 1087.53 71.7667 1087.53 66.3C1087.53 60.7667 1086.23 56.4333 1083.63 53.3C1081.09 50.1667 1077.59 48.6 1073.13 48.6C1068.59 48.6 1065.03 50.1667 1062.43 53.3C1059.89 56.4333 1058.63 60.7667 1058.63 66.3C1058.63 71.7667 1059.89 76.1 1062.43 79.3C1065.03 82.4333 1068.59 84 1073.13 84ZM1130.06 94V78.4H1146.26V94H1130.06ZM1203.8 95.2C1197.87 95.2 1192.77 94.0333 1188.5 91.7C1184.3 89.3667 1181.04 86.0333 1178.7 81.7C1176.44 77.3667 1175.3 72.2333 1175.3 66.3C1175.3 60.2333 1176.44 55.0667 1178.7 50.8C1181.04 46.4667 1184.37 43.1667 1188.7 40.9C1193.04 38.5667 1198.27 37.4 1204.4 37.4C1213.94 37.4 1220.87 40.0667 1225.2 45.4C1229.6 50.7333 1231.47 58.0667 1230.8 67.4H1186.3V57.8H1216.8C1216.54 54.9333 1215.24 52.6333 1212.9 50.9C1210.64 49.1 1207.77 48.2 1204.3 48.2C1199.17 48.2 1195.34 49.8 1192.8 53C1190.34 56.2 1189.1 60.8333 1189.1 66.9C1189.1 70.1 1189.67 73 1190.8 75.6C1191.94 78.2 1193.57 80.2667 1195.7 81.8C1197.9 83.3333 1200.6 84.1 1203.8 84.1C1207.27 84.1 1210.2 83.2333 1212.6 81.5C1215.07 79.7667 1216.57 77.5333 1217.1 74.8H1230.8C1230.07 81.0667 1227.3 86.0333 1222.5 89.7C1217.7 93.3667 1211.47 95.2 1203.8 95.2ZM1255.24 38.6V73C1255.24 76.2 1256.08 78.8 1257.74 80.8C1259.48 82.7333 1261.74 83.7 1264.54 83.7C1267.74 83.7 1270.64 82.6 1273.24 80.4C1275.84 78.1333 1278.28 74.4667 1280.54 69.4L1282.54 82C1280.14 86.6 1277.11 89.9667 1273.44 92.1C1269.78 94.1667 1265.91 95.2 1261.84 95.2C1257.64 95.2 1254.01 94.3 1250.94 92.5C1247.94 90.7 1245.61 88.2333 1243.94 85.1C1242.28 81.9 1241.44 78.1333 1241.44 73.8V38.6H1255.24ZM1293.04 38.6V94H1279.84L1279.34 83.3V38.6H1293.04Z"
            fill="#212121" />
        <path d="M0 106.5H1300.74V111.5H0V106.5Z" fill="#212121" />
    </g>
    <a href="mailto:contact@cesarcaso.eu">
        <rect fill="black" fill-opacity="0" y="0.150002" width="1300" height="120" />
    </a>
    </g>
</svg>