<svg width="171" height="143" viewBox="0 0 171 143" fill="none" xmlns="http://www.w3.org/2000/svg">
<path d="M2.54236 44.8867H54.272" stroke="#212121" stroke-width="3" stroke-linecap="round"/>
<path d="M54.272 44.8866C55.4393 42.2927 55.2437 39.0987 56.3953 36.5653C57.1397 34.9274 56.5394 33.7667 57.6606 32.1472C58.8113 30.4851 59.5302 28.5552 60.7061 26.8928C62.937 23.7387 65.9262 21.3264 68.6843 18.6786C69.7984 17.6091 70.9671 16.5831 72.1158 15.5474C74.0008 13.8478 75.1939 11.7467 77.4346 10.4431C78.64 9.7417 79.2521 8.58059 80.5229 7.99813C82.7135 6.99409 84.3594 5.15587 86.7639 4.22349C93.6813 1.54124 101.186 2.03592 108.49 2.03592C114.073 2.03592 119.656 2.03592 125.239 2.03592C127.495 2.03592 129.892 2.92243 131.738 4.22349C134.837 6.40782 138.333 8.37408 141.217 10.8077C144.158 13.2885 148.711 15.6083 150.697 19.0218C151.873 21.044 153.666 22.5039 155.008 24.4049C156.502 26.5216 157.8 28.5319 159.104 30.7746C161.175 34.3375 163.084 38.1422 165.238 41.6267C168.115 46.2818 169.313 53.1118 169.313 58.5697C169.313 60.9754 168.01 63.5823 166.996 65.7543C166.033 67.8182 166.046 70.3364 165.066 72.2956" stroke="#212121" stroke-width="3" stroke-linecap="round"/>
<path d="M2.54235 45.2726C2.2151 52.1451 2.15631 59.0037 2.15631 65.9045C2.15631 67.5842 2.38451 69.0575 3.52891 70.3654C4.51088 71.4876 5.87974 72.2361 6.48856 73.4537C7.1899 74.8564 9.01461 74.8165 10.1131 75.577C12.4635 77.2042 15.6789 77.4657 18.2843 78.4723C20.2554 79.2339 22.0915 80.1582 24.1607 80.7027C26.2584 81.2548 28.6736 82.4045 30.7234 82.6973C34.7131 83.2673 38.6952 83.7136 42.6908 84.2844C43.9256 84.4608 45.1387 85.1715 46.3582 85.4425C47.8343 85.7705 49.2377 85.8071 50.7976 85.8071C53.6286 85.8071 56.4596 85.8071 59.2906 85.8071" stroke="#212121" stroke-width="3" stroke-linecap="round"/>
<path d="M58.9045 86.9652C58.9045 90.092 60.4487 92.7813 60.4487 95.8442C60.4487 97.9603 60.4487 100.076 60.4487 102.192C60.4487 109.716 63.896 116.223 66.2393 123.253C68.2634 129.325 72.0375 135.425 75.5044 140.625" stroke="#212121" stroke-width="3" stroke-linecap="round"/>
<path d="M5.89993 50.0415C5.7216 50.1713 5.56986 50.3386 5.45917 50.57C5.28959 50.9246 4.80152 53.5713 5.07313 52.1356C5.12273 51.8735 5.25402 50.3846 5.2539 49.2528C4.81359 48.88 4.38816 48.4807 4.94445 47.975C5.00942 47.9159 5.06208 47.9221 5.10427 47.9799C5.84247 47.999 7.23246 47.992 7.90374 47.9842C7.95873 47.9781 8.016 47.975 8.07568 47.975C8.44158 47.975 8.2943 47.9797 7.90374 47.9842C7.05309 48.0787 6.74863 48.8821 6.53615 49.7239C6.41189 50.2163 6.3191 50.7217 6.16691 51.1062C5.93091 51.7024 5.75758 52.1553 5.6339 52.4885C5.18113 53.7081 5.39383 53.323 5.6339 52.4885C5.84377 51.7589 6.07455 50.686 5.89993 50.0415Z" fill="#F9F8F5"/>
<path d="M2.5424 54.9237C5.66045 53.4468 8.99268 53.0178 10.8209 49.8837C11.2278 49.1861 11.8074 48.2108 11.8074 47.3959C11.8074 45.3056 9.75489 48.2179 8.80487 48.6613C8.15661 48.9638 7.54066 49.3744 6.87466 49.6049C6.29553 49.8054 5.74268 49.9772 5.45917 50.57C5.28959 50.9246 4.80152 53.5713 5.07313 52.1356C5.15981 51.6775 5.49591 47.4736 4.94445 47.975C4.14478 48.7019 5.37378 49.2091 5.75942 49.7336C6.65332 50.9493 4.17252 56.1447 6.16691 51.1062C6.59613 50.0218 6.55294 47.975 8.07568 47.975C9.11942 47.975 5.98747 48.0136 4.94445 47.975C3.90646 47.9365 4.18218 46.8168 5.33049 46.8168C6.38138 46.8168 7.43227 46.8168 8.48317 46.8168C10.3848 46.8168 4.67993 46.8168 2.77832 46.8168C1.57015 46.8168 5.19466 46.8168 6.40283 46.8168C7.85406 46.8168 9.30529 46.8168 10.7565 46.8168C12.3025 46.8168 8.67864 46.8168 7.947 46.8168" stroke="#212121" stroke-width="3" stroke-linecap="round"/>
<path d="M84.3834 30.9891C81.4548 30.9891 80.0211 32.029 77.8206 33.3912C74.9045 35.1964 74.2988 38.104 71.8799 40.2542C71.0813 40.964 71.7208 41.7983 72.5233 41.7983C74.8891 41.7983 77.2136 41.4123 79.5793 41.4123C81.9527 41.4123 84.3262 41.4123 86.6996 41.4123" stroke="#212121" stroke-width="3" stroke-linecap="round"/>
<path d="M83.2252 32.5333C85.4412 32.5333 87.5628 32.3 89.4019 33.2196C91.891 34.4641 92.7087 36.2429 94.8065 38.1309C98.972 41.8799 84.3729 41.7983 82.4531 41.7983" stroke="#212121" stroke-width="3" stroke-linecap="round"/>
<path d="M81.6811 37.8521C81.6811 37.5331 81.6748 37.2265 81.6708 36.9292C81.6623 36.9276 81.6538 36.926 81.6455 36.9244C81.6568 37.15 81.6886 37.3913 81.488 37.5518C81.2655 37.7299 81.3444 38.4831 80.909 38.2381C80.2444 37.8643 80.566 36.6462 81.3808 36.8655C81.4572 36.8861 81.5465 36.9057 81.6455 36.9244C81.6403 36.8204 81.6394 36.7196 81.6678 36.6318C81.6863 36.5747 81.717 36.5231 81.7668 36.4795C81.9376 36.33 82.0025 36.6489 82.0343 36.9869C82.1262 36.9997 82.2219 37.0119 82.32 37.0235C83.158 34.7723 82.8772 35.9223 82.4568 37.0391C82.6906 37.0649 82.9339 37.0875 83.1689 37.1067C83.1307 35.8151 83.1305 33.7525 83.4183 34.2705C83.745 34.8587 83.5271 37.1046 84.3834 37.1658C84.9807 37.2085 84.1466 37.1866 83.1689 37.1067C82.9339 37.0875 82.6906 37.0649 82.4568 37.0391C82.1151 37.9471 81.6811 38.8333 81.6811 37.8521Z" fill="#F9F8F5"/>
<path d="M82.4531 33.3054C81.5011 34.7929 81.6811 36.1446 81.6811 37.8521C81.6811 40.1315 84.0233 32.3331 82.11 37.5947C82.0216 37.8377 82.1173 36.1729 81.7668 36.4795C81.4737 36.736 81.8413 37.2692 81.488 37.5518C81.2655 37.7299 81.3444 38.4831 80.909 38.2381C80.2444 37.8643 80.566 36.6462 81.3808 36.8655C82.3521 37.127 85.3866 37.2374 84.3834 37.1658C83.5271 37.1046 83.745 34.8587 83.4183 34.2705C82.9657 33.4559 83.2252 39.0223 83.2252 37.9379" stroke="#212121" stroke-width="3" stroke-linecap="round"/>
<path d="M121.631 7.07071C121.755 7.06359 121.878 7.05812 122.001 7.0545C123.33 7.01543 126.074 6.59002 123.266 7.48344C121.147 8.15763 119.581 8.59867 117.411 8.59867C115.886 8.59867 114.074 8.34393 112.586 8.64157C111.833 8.79212 111.216 8.99163 110.578 9.14512C109.929 9.30117 109.259 9.40966 108.404 9.37076C107.439 9.32689 108.176 9.09154 109.482 8.84434C109.183 8.74585 108.894 8.63568 108.618 8.51289C106.391 7.5231 106.775 7.42415 108.069 7.05532C108.268 6.99852 108.489 6.93532 108.725 6.86148C109.735 6.5459 110.325 6.28242 111.406 6.28242H119.513H122.861C123.563 6.18718 124.452 6.28242 124.017 6.28242H122.861C122.588 6.31947 122.343 6.38535 122.215 6.49689C122.009 6.67713 121.819 6.87286 121.631 7.07071Z" fill="#F9F8F5"/>
<path d="M99.825 2.422C99.9058 3.22941 100.421 5.19578 101.026 5.7248C101.704 6.31817 102.473 6.43494 103.085 7.18319C104.158 8.49423 104.856 9.41724 106.388 10.1428C109.435 11.5864 113.427 10.9149 116.704 10.9149C118.53 10.9149 120.391 11.0163 122.215 10.9149C124.319 10.798 129.034 6.60545 129.164 4.65246C129.233 3.62166 119.874 3.85229 118.527 4.05195C113.638 4.77618 108.548 4.35221 103.6 4.35221C101.583 4.35221 103.398 6.18134 104.5 6.30387C105.672 6.43406 106.76 7.0545 107.932 7.0545C110.365 7.0545 112.272 7.82659 114.795 7.82659C117.24 7.82659 119.724 7.12147 122.001 7.0545C123.33 7.01543 126.074 6.59002 123.266 7.48344C121.147 8.15763 119.581 8.59867 117.411 8.59867C115.886 8.59867 114.074 8.34393 112.586 8.64157C111.068 8.9452 110.101 9.44791 108.404 9.37076C106.241 9.27245 112.63 8.21263 114.795 8.21263C116.322 8.21263 119.711 8.90768 120.972 7.7408C121.401 7.34311 121.773 6.88424 122.215 6.49689C122.671 6.09866 124.622 6.28242 124.017 6.28242C122.516 6.28242 121.014 6.28242 119.513 6.28242C116.811 6.28242 114.109 6.28242 111.406 6.28242C110.325 6.28242 109.735 6.5459 108.725 6.86148C106.955 7.41481 106.048 7.37067 108.618 8.51289C112.112 10.0657 117.564 9.60154 121.229 8.98472C123.299 8.6363 125.217 7.75173 127.213 7.4191C128.204 7.25379 124.303 6.66846 123.76 6.66846" stroke="#212121" stroke-width="3" stroke-linecap="round"/>
<path d="M22.2305 54.1517H22.6166" stroke="#212121" stroke-width="3" stroke-linecap="round"/>
<path d="M22.924 62.1676H23.3101" stroke="#212121" stroke-width="3" stroke-linecap="round"/>
<path d="M30.924 50.1676H31.3101" stroke="#212121" stroke-width="3" stroke-linecap="round"/>
<path d="M41.5327 52.2214V52.6075" stroke="#212121" stroke-width="3" stroke-linecap="round"/>
<path d="M41.5327 62.2214V62.6075" stroke="#212121" stroke-width="3" stroke-linecap="round"/>
<path d="M32.924 57.1676V57.5536" stroke="#212121" stroke-width="3" stroke-linecap="round"/>
<path d="M117.583 62.6446C114.288 68.9487 111.908 74.86 110.548 81.9038C108.172 94.2186 103.665 108.124 107.224 120.551C109.915 129.944 118.477 143.49 130.151 141.183C133.334 140.554 136.436 138.778 139.416 137.537C141.844 136.525 144.415 135.48 146.493 133.826C149.124 131.734 150.251 127.806 151.297 124.819C154.397 115.973 156.596 106.841 159.404 97.9031C161.486 91.2777 165.764 84.0975 165.452 76.9282C165.294 73.2917 163.264 68.5629 161.356 65.4541C160.271 63.6857 158.106 63.4167 156.187 63.4167" stroke="#212121" stroke-width="3" stroke-linecap="round"/>
<path d="M139.973 69.5933C135.067 72.1907 129.805 73.7407 124.446 75.1266C121.818 75.8064 126.129 75.7239 127.02 75.8558C131.463 76.5141 135.843 76.4427 140.317 76.5421C140.798 76.5528 142.872 76.3295 141.882 77.4643C139.366 80.3492 135.609 82.0806 132.682 84.4988C131.039 85.8559 132.526 85.7714 133.883 85.8071C136.894 85.8863 139.921 85.8071 142.933 85.8071C143.82 85.8071 144.706 85.7979 145.593 85.8071C146.267 85.8141 147.307 85.3754 147.609 85.9787C148.013 86.787 141.509 90.3412 141.346 90.4396C140.056 91.2171 126.467 98.5213 126.805 99.7046C126.884 99.9813 132.424 99.7046 133.11 99.7046C134.208 99.7046 141.223 98.7238 139.416 100.949C138.001 102.689 135.481 104.01 133.711 105.195C130.262 107.504 126.195 109.635 123.159 112.508C121.84 113.757 126.747 113.212 128.564 113.216C135.14 113.231 141.719 113.154 148.295 113.216C149.092 113.224 151.038 113.143 150.611 113.817C149.577 115.45 147.25 116.872 145.807 118.02C143.983 119.471 141.909 120.822 140.274 122.503C139.261 123.544 138.797 125.177 137.915 126.342C135.931 128.96 133.245 129.867 130.537 131.467C130.183 131.676 131.327 131.743 131.738 131.746C135.255 131.771 138.773 131.746 142.29 131.746" stroke="#212121" stroke-width="3" stroke-linecap="round"/>
<path d="M38.8304 82.7188C41.2634 82.7188 43.4638 83.1427 45.4145 81.5821C47.4585 79.9469 48.8808 78.9478 50.4117 76.7137C51.1598 75.6218 52.2176 75.1221 53.1139 74.2258" stroke="#212121" stroke-width="3" stroke-linecap="round"/>
</svg>
