<svg width="18" height="15" viewBox="0 0 18 15" fill="none" xmlns="http://www.w3.org/2000/svg">
<path d="M1.03696 5.1051H5.98846" stroke="#212121" stroke-width="0.25" stroke-linecap="round"/>
<path d="M5.98846 5.10505C6.10019 4.85677 6.08147 4.55104 6.1917 4.30854C6.26296 4.15177 6.2055 4.04067 6.31282 3.88565C6.42296 3.72656 6.49177 3.54183 6.60432 3.3827C6.81786 3.0808 7.10399 2.8499 7.36799 2.59646C7.47463 2.49409 7.5865 2.39587 7.69644 2.29674C7.87688 2.13406 7.99108 1.93294 8.20555 1.80816C8.32094 1.74103 8.37952 1.62989 8.50117 1.57413C8.71085 1.47803 8.86839 1.30208 9.09855 1.21283C9.76067 0.956089 10.479 1.00344 11.1781 1.00344C11.7125 1.00344 12.247 1.00344 12.7814 1.00344C12.9973 1.00344 13.2267 1.08829 13.4034 1.21283C13.7 1.42191 14.0347 1.61012 14.3108 1.84306C14.5922 2.08052 15.028 2.30257 15.2181 2.6293C15.3307 2.82287 15.5023 2.96261 15.6308 3.14457C15.7738 3.34718 15.898 3.53961 16.0228 3.75427C16.2211 4.0953 16.4038 4.45949 16.61 4.79302C16.8854 5.2386 17 5.89236 17 6.41478C17 6.64505 16.8753 6.89458 16.7783 7.10249C16.6861 7.30003 16.6873 7.54108 16.5935 7.72861" stroke="#212121" stroke-width="0.25" stroke-linecap="round"/>
<path d="M1.03695 5.14197C1.00563 5.79979 1 6.45628 1 7.11682C1 7.2776 1.02184 7.41863 1.13138 7.54382C1.22538 7.65124 1.3564 7.72288 1.41468 7.83943C1.48181 7.97369 1.65647 7.96987 1.76161 8.04266C1.98659 8.19842 2.29437 8.22344 2.54375 8.3198C2.73242 8.39269 2.90817 8.48117 3.10624 8.53329C3.30702 8.58613 3.5382 8.69618 3.73441 8.72421C4.1163 8.77877 4.49746 8.82149 4.87991 8.87612C4.9981 8.89301 5.11422 8.96104 5.23095 8.98698C5.37224 9.01837 5.50657 9.02187 5.65589 9.02187C5.92687 9.02187 6.19784 9.02187 6.46882 9.02187" stroke="#212121" stroke-width="0.25" stroke-linecap="round"/>
<path d="M6.43187 9.13281C6.43187 9.4321 6.57968 9.68953 6.57968 9.9827C6.57968 10.1852 6.57968 10.3878 6.57968 10.5903C6.57968 11.3105 6.90965 11.9334 7.13395 12.6063C7.32769 13.1875 7.68894 13.7713 8.02078 14.2691" stroke="#212121" stroke-width="0.25" stroke-linecap="round"/>
<path d="M1.03695 6.06576C1.3354 5.92439 1.65436 5.88332 1.82935 5.58334C1.8683 5.51656 1.92378 5.4232 1.92378 5.3452C1.92378 5.14513 1.72732 5.42389 1.63638 5.46632C1.57433 5.49528 1.51538 5.53458 1.45163 5.55665C1.39619 5.57584 1.34328 5.59229 1.31614 5.64903C1.29991 5.68297 1.25319 5.93631 1.27919 5.79889C1.28748 5.75503 1.31965 5.35265 1.26687 5.40063C1.19033 5.47022 1.30796 5.51876 1.34488 5.56897C1.43044 5.68533 1.19298 6.18263 1.38388 5.70035C1.42497 5.59656 1.42083 5.40063 1.56659 5.40063C1.66649 5.40063 1.36671 5.40433 1.26687 5.40063C1.16751 5.39695 1.19391 5.28978 1.30382 5.28978C1.40441 5.28978 1.505 5.28978 1.60559 5.28978C1.78761 5.28978 1.24155 5.28978 1.05953 5.28978C0.943886 5.28978 1.29082 5.28978 1.40646 5.28978C1.54537 5.28978 1.68428 5.28978 1.82319 5.28978C1.97117 5.28978 1.6243 5.28978 1.55427 5.28978" stroke="#212121" stroke-width="0.25" stroke-linecap="round"/>
<path d="M8.87068 3.77478C8.59036 3.77478 8.45313 3.87431 8.24251 4.0047C7.96338 4.17749 7.9054 4.45581 7.67386 4.66162C7.59742 4.72956 7.65864 4.80942 7.73545 4.80942C7.9619 4.80942 8.1844 4.77247 8.41084 4.77247C8.63802 4.77247 8.86521 4.77247 9.09239 4.77247" stroke="#212121" stroke-width="0.25" stroke-linecap="round"/>
<path d="M8.75982 3.92257C8.97193 3.92257 9.175 3.90025 9.35104 3.98826C9.5893 4.10739 9.66756 4.27765 9.86836 4.45837C10.2671 4.81722 8.86967 4.80941 8.68591 4.80941" stroke="#212121" stroke-width="0.25" stroke-linecap="round"/>
<path d="M8.68592 3.99646C8.59479 4.13885 8.61201 4.26823 8.61201 4.43167C8.61201 4.64985 8.83621 3.9034 8.65307 4.40703C8.64461 4.43029 8.65377 4.27093 8.62022 4.30028C8.59217 4.32483 8.62735 4.37588 8.59354 4.40293C8.57224 4.41997 8.57979 4.49206 8.53811 4.46862C8.47449 4.43283 8.50528 4.31624 8.58327 4.33723C8.67624 4.36226 8.96671 4.37283 8.87067 4.36597C8.78871 4.36012 8.80957 4.14514 8.77829 4.08884C8.73498 4.01087 8.75982 4.54368 8.75982 4.43988" stroke="#212121" stroke-width="0.25" stroke-linecap="round"/>
<path d="M10.3487 1.04041C10.3565 1.11769 10.4058 1.30591 10.4637 1.35655C10.5286 1.41334 10.6022 1.42452 10.6608 1.49614C10.7634 1.62163 10.8303 1.70998 10.9769 1.77944C11.2686 1.91761 11.6507 1.85334 11.9643 1.85334C12.1391 1.85334 12.3173 1.86304 12.4919 1.85334C12.6933 1.84215 13.1446 1.44084 13.157 1.2539C13.1636 1.15524 12.2678 1.17731 12.1388 1.19642C11.6709 1.26574 11.1837 1.22516 10.71 1.22516C10.517 1.22516 10.6907 1.40024 10.7962 1.41197C10.9084 1.42444 11.0125 1.48382 11.1247 1.48382C11.3576 1.48382 11.5401 1.55773 11.7816 1.55773C12.0157 1.55773 12.2535 1.49023 12.4714 1.48382C12.5986 1.48008 12.8613 1.43936 12.5925 1.52488C12.3897 1.58941 12.2398 1.63163 12.0321 1.63163C11.8861 1.63163 11.7126 1.60725 11.5702 1.63573C11.4249 1.6648 11.3323 1.71292 11.1699 1.70553C10.9628 1.69612 11.5744 1.59468 11.7816 1.59468C11.9278 1.59468 12.2522 1.66121 12.3728 1.54951C12.414 1.51145 12.4495 1.46753 12.4919 1.43045C12.5355 1.39233 12.7222 1.40992 12.6644 1.40992C12.5207 1.40992 12.377 1.40992 12.2333 1.40992C11.9746 1.40992 11.7159 1.40992 11.4573 1.40992C11.3538 1.40992 11.2973 1.43514 11.2007 1.46535C11.0312 1.51831 10.9444 1.51409 11.1904 1.62342C11.5248 1.77205 12.0467 1.72762 12.3975 1.66858C12.5956 1.63523 12.7792 1.55056 12.9702 1.51872C13.0652 1.5029 12.6917 1.44687 12.6397 1.44687" stroke="#212121" stroke-width="0.25" stroke-linecap="round"/>
<path d="M2.92148 5.99194H2.95843" stroke="#212121" stroke-width="0.25" stroke-linecap="round"/>
<path d="M2.98785 6.75916H3.02481" stroke="#212121" stroke-width="0.25" stroke-linecap="round"/>
<path d="M3.7536 5.6106H3.79055" stroke="#212121" stroke-width="0.25" stroke-linecap="round"/>
<path d="M4.76906 5.80713V5.84408" stroke="#212121" stroke-width="0.25" stroke-linecap="round"/>
<path d="M4.76906 6.76428V6.80123" stroke="#212121" stroke-width="0.25" stroke-linecap="round"/>
<path d="M3.94504 6.28052V6.31747" stroke="#212121" stroke-width="0.25" stroke-linecap="round"/>
<path d="M12.0485 6.80481C11.7331 7.40823 11.5053 7.97405 11.3752 8.64828C11.1477 9.82704 10.7163 11.1581 11.057 12.3475C11.3145 13.2467 12.1341 14.5432 13.2515 14.3224C13.5562 14.2622 13.8531 14.0922 14.1383 13.9734C14.3707 13.8766 14.6168 13.7765 14.8158 13.6183C15.0676 13.418 15.1754 13.0419 15.2756 12.7561C15.5723 11.9093 15.7828 11.0352 16.0516 10.1797C16.2508 9.54553 16.6603 8.85825 16.6305 8.17201C16.6154 7.82394 16.421 7.37131 16.2384 7.07373C16.1345 6.90446 15.9273 6.87871 15.7437 6.87871" stroke="#212121" stroke-width="0.25" stroke-linecap="round"/>
<path d="M14.1917 7.46997C13.7221 7.71859 13.2184 7.86695 12.7054 7.99961C12.4538 8.06468 12.8665 8.05678 12.9518 8.06941C13.3771 8.13242 13.7963 8.12558 14.2245 8.1351C14.2707 8.13612 14.4691 8.11475 14.3744 8.22337C14.1335 8.49951 13.7739 8.66524 13.4937 8.89671C13.3365 9.0266 13.4789 9.01852 13.6087 9.02193C13.8969 9.02952 14.1866 9.02193 14.475 9.02193C14.5598 9.02193 14.6447 9.02105 14.7295 9.02193C14.7941 9.02261 14.8936 8.98062 14.9225 9.03836C14.9612 9.11572 14.3387 9.45593 14.3231 9.46535C14.1996 9.53977 12.8989 10.2389 12.9312 10.3522C12.9388 10.3787 13.4691 10.3522 13.5348 10.3522C13.6398 10.3522 14.3113 10.2583 14.1383 10.4713C14.0029 10.6379 13.7616 10.7643 13.5923 10.8777C13.2622 11.0987 12.8728 11.3027 12.5822 11.5777C12.4559 11.6973 12.9257 11.6451 13.0996 11.6455C13.729 11.6469 14.3587 11.6396 14.9882 11.6455C15.0645 11.6462 15.2508 11.6385 15.2099 11.703C15.1109 11.8593 14.8882 11.9955 14.7501 12.1053C14.5755 12.2442 14.3769 12.3735 14.2204 12.5344C14.1234 12.6341 14.079 12.7904 13.9946 12.9018C13.8047 13.1525 13.5477 13.2393 13.2884 13.3925C13.2546 13.4125 13.3641 13.4189 13.4034 13.4192C13.74 13.4215 14.0768 13.4192 14.4134 13.4192" stroke="#212121" stroke-width="0.25" stroke-linecap="round"/>
<path d="M4.51041 8.72626C4.74329 8.72626 4.95391 8.76684 5.14063 8.61746C5.33628 8.46095 5.47242 8.36532 5.61895 8.15146C5.69056 8.04695 5.79182 7.99912 5.87761 7.91333" stroke="#212121" stroke-width="0.25" stroke-linecap="round"/>
</svg>
