<svg id="shamir-logo" width="171" height="143" viewBox="0 0 171 143" fill="none" xmlns="http://www.w3.org/2000/svg">
    <g id="fun=logo, color=light">
        <path id="Vector 1" d="M2.38605 44.8867H54.1157" stroke="#F9F8F5" stroke-width="3" stroke-linecap="round" />
        <path id="Vector 2"
            d="M54.1157 44.8866C55.283 42.2927 55.0874 39.0987 56.239 36.5653C56.9834 34.9274 56.3831 33.7667 57.5043 32.1472C58.655 30.4851 59.3739 28.5552 60.5498 26.8928C62.7807 23.7387 65.7699 21.3264 68.528 18.6786C69.642 17.6091 70.8108 16.5831 71.9595 15.5474C73.8445 13.8478 75.0376 11.7467 77.2783 10.4431C78.4837 9.7417 79.0958 8.58059 80.3666 7.99813C82.5572 6.99409 84.2031 5.15587 86.6076 4.22349C93.525 1.54124 101.03 2.03592 108.333 2.03592C113.917 2.03592 119.5 2.03592 125.083 2.03592C127.339 2.03592 129.736 2.92243 131.582 4.22349C134.68 6.40782 138.177 8.37408 141.061 10.8077C144.001 13.2885 148.554 15.6083 150.541 19.0218C151.717 21.044 153.509 22.5039 154.851 24.4049C156.345 26.5216 157.644 28.5319 158.948 30.7746C161.019 34.3375 162.927 38.1422 165.081 41.6267C167.959 46.2818 169.156 53.1118 169.156 58.5697C169.156 60.9754 167.854 63.5823 166.84 65.7543C165.877 67.8182 165.889 70.3364 164.91 72.2956"
            stroke="#F9F8F5" stroke-width="3" stroke-linecap="round" />
        <path id="Vector 3"
            d="M2.38604 45.2727C2.05878 52.1451 2 59.0037 2 65.9045C2 67.5842 2.2282 69.0576 3.37259 70.3655C4.35457 71.4877 5.72343 72.2362 6.33225 73.4538C7.03359 74.8565 8.8583 74.8166 9.95676 75.577C12.3072 77.2043 15.5226 77.4657 18.128 78.4723C20.0991 79.2339 21.9351 80.1583 24.0044 80.7028C26.1021 81.2548 28.5173 82.4045 30.5671 82.6974C34.5568 83.2673 38.5389 83.7136 42.5344 84.2844C43.7693 84.4608 44.9824 85.1716 46.2018 85.4426C47.678 85.7706 49.0814 85.8071 50.6413 85.8071C53.4723 85.8071 56.3033 85.8071 59.1343 85.8071"
            stroke="#F9F8F5" stroke-width="3" stroke-linecap="round" />
        <path id="Vector 4"
            d="M58.7482 86.9652C58.7482 90.092 60.2924 92.7813 60.2924 95.8442C60.2924 97.9603 60.2924 100.076 60.2924 102.192C60.2924 109.716 63.7397 116.223 66.083 123.253C68.1071 129.325 71.8812 135.425 75.348 140.625"
            stroke="#F9F8F5" stroke-width="3" stroke-linecap="round" />
        <path id="Vector 5"
            d="M2.38609 54.9237C5.50414 53.4468 8.83637 53.0178 10.6646 49.8837C11.0715 49.1861 11.6511 48.2108 11.6511 47.3959C11.6511 45.3056 9.59858 48.2179 8.64856 48.6613C8.0003 48.9638 7.38435 49.3744 6.71835 49.6049C6.13921 49.8054 5.58637 49.9772 5.30286 50.57C5.13328 50.9246 4.6452 53.5713 4.91681 52.1356C5.0035 51.6775 5.3396 47.4736 4.78813 47.975C3.98847 48.7019 5.21747 49.2091 5.60311 49.7336C6.49701 50.9493 4.01621 56.1447 6.0106 51.1062C6.43982 50.0218 6.39663 47.975 7.91937 47.975C8.96311 47.975 5.83116 48.0136 4.78813 47.975C3.75015 47.9365 4.02587 46.8168 5.17418 46.8168C6.22507 46.8168 7.27596 46.8168 8.32686 46.8168C10.2285 46.8168 4.52362 46.8168 2.62201 46.8168C1.41384 46.8168 5.03835 46.8168 6.24652 46.8168C7.69775 46.8168 9.14898 46.8168 10.6002 46.8168C12.1462 46.8168 8.52233 46.8168 7.79069 46.8168"
            stroke="#F9F8F5" stroke-width="3" stroke-linecap="round" />
        <path id="Vector 6"
            d="M84.227 30.9891C81.2985 30.9891 79.8648 32.029 77.6643 33.3912C74.7482 35.1964 74.1425 38.104 71.7236 40.2542C70.925 40.964 71.5645 41.7983 72.367 41.7983C74.7328 41.7983 77.0573 41.4123 79.423 41.4123C81.7964 41.4123 84.1699 41.4123 86.5433 41.4123"
            stroke="#F9F8F5" stroke-width="3" stroke-linecap="round" />
        <path id="Vector 7"
            d="M83.0689 32.5333C85.2849 32.5333 87.4065 32.3 89.2456 33.2196C91.7347 34.4641 92.5524 36.2429 94.6502 38.1309C98.8157 41.8799 84.2166 41.7983 82.2968 41.7983"
            stroke="#F9F8F5" stroke-width="3" stroke-linecap="round" />
        <path id="Vector 8"
            d="M82.2968 33.3054C81.3448 34.793 81.5248 36.1447 81.5248 37.8521C81.5248 40.1315 83.867 32.3332 81.9537 37.5948C81.8653 37.8378 81.961 36.1729 81.6105 36.4795C81.3174 36.736 81.685 37.2693 81.3317 37.5519C81.1092 37.7299 81.1881 38.4831 80.7527 38.2382C80.0881 37.8643 80.4097 36.6462 81.2245 36.8656C82.1958 37.1271 85.2303 37.2375 84.227 37.1658C83.3708 37.1047 83.5887 34.8587 83.2619 34.2705C82.8094 33.456 83.0689 39.0224 83.0689 37.9379"
            stroke="#F9F8F5" stroke-width="3" stroke-linecap="round" />
        <path id="Vector 9"
            d="M99.6687 2.422C99.7494 3.22941 100.265 5.19578 100.87 5.7248C101.548 6.31817 102.316 6.43494 102.929 7.18319C104.001 8.49423 104.7 9.41724 106.231 10.1428C109.279 11.5864 113.271 10.9149 116.547 10.9149C118.374 10.9149 120.235 11.0163 122.059 10.9149C124.163 10.798 128.878 6.60545 129.008 4.65246C129.077 3.62166 119.718 3.85229 118.37 4.05195C113.482 4.77618 108.392 4.35221 103.443 4.35221C101.426 4.35221 103.241 6.18134 104.344 6.30387C105.516 6.43406 106.603 7.0545 107.776 7.0545C110.209 7.0545 112.115 7.82659 114.639 7.82659C117.084 7.82659 119.568 7.12147 121.845 7.0545C123.173 7.01543 125.918 6.59002 123.11 7.48344C120.991 8.15763 119.425 8.59867 117.255 8.59867C115.73 8.59867 113.918 8.34393 112.43 8.64157C110.911 8.9452 109.945 9.44791 108.247 9.37076C106.085 9.27245 112.473 8.21263 114.639 8.21263C116.165 8.21263 119.555 8.90768 120.815 7.7408C121.245 7.34311 121.616 6.88424 122.059 6.49689C122.514 6.09866 124.465 6.28242 123.861 6.28242C122.359 6.28242 120.858 6.28242 119.357 6.28242C116.655 6.28242 113.952 6.28242 111.25 6.28242C110.169 6.28242 109.579 6.5459 108.569 6.86148C106.798 7.41481 105.892 7.37067 108.462 8.51289C111.956 10.0657 117.408 9.60154 121.073 8.98472C123.143 8.6363 125.06 7.75173 127.056 7.4191C128.048 7.25379 124.146 6.66846 123.603 6.66846"
            stroke="#F9F8F5" stroke-width="3" stroke-linecap="round" />
        <path id="Vector 10" d="M22.0742 54.1516H22.4603" stroke="#F9F8F5" stroke-width="3" stroke-linecap="round" />
        <path id="Vector 15" d="M22.7677 62.1676H23.1537" stroke="#F9F8F5" stroke-width="3" stroke-linecap="round" />
        <path id="Vector 14" d="M30.7677 50.1676H31.1537" stroke="#F9F8F5" stroke-width="3" stroke-linecap="round" />
        <path id="Vector 11" d="M41.3763 52.2214V52.6075" stroke="#F9F8F5" stroke-width="3" stroke-linecap="round" />
        <path id="Vector 13" d="M41.3763 62.2214V62.6075" stroke="#F9F8F5" stroke-width="3" stroke-linecap="round" />
        <path id="Vector 16" d="M32.7677 57.1676V57.5536" stroke="#F9F8F5" stroke-width="3" stroke-linecap="round" />
        <path id="Vector 17"
            d="M117.427 62.6445C114.131 68.9486 111.751 74.8599 110.392 81.9038C108.016 94.2186 103.509 108.124 107.068 120.551C109.758 129.944 118.32 143.49 129.994 141.183C133.178 140.554 136.28 138.778 139.26 137.537C141.687 136.525 144.258 135.48 146.337 133.826C148.967 131.734 150.094 127.805 151.141 124.819C154.241 115.972 156.44 106.841 159.248 97.9031C161.33 91.2776 165.608 84.0974 165.296 76.9281C165.138 73.2917 163.107 68.5629 161.2 65.4541C160.114 63.6856 157.949 63.4166 156.031 63.4166"
            stroke="#F9F8F5" stroke-width="3" stroke-linecap="round" />
        <path id="Vector 18"
            d="M139.817 69.5933C134.911 72.1906 129.649 73.7406 124.29 75.1265C121.661 75.8063 125.973 75.7238 126.863 75.8557C131.307 76.5141 135.686 76.4426 140.16 76.542C140.642 76.5527 142.716 76.3295 141.726 77.4642C139.209 80.3492 135.453 82.0806 132.525 84.4988C130.883 85.8558 132.37 85.7713 133.726 85.807C136.738 85.8863 139.764 85.807 142.777 85.807C143.663 85.807 144.55 85.7978 145.436 85.807C146.111 85.8141 147.151 85.3754 147.452 85.9786C147.856 86.7869 141.353 90.3411 141.19 90.4395C139.9 91.217 126.311 98.5212 126.649 99.7046C126.728 99.9813 132.268 99.7046 132.954 99.7046C134.052 99.7046 141.067 98.7237 139.26 100.948C137.845 102.689 135.324 104.01 133.555 105.195C130.106 107.504 126.039 109.635 123.003 112.508C121.683 113.757 126.591 113.212 128.407 113.216C134.984 113.231 141.562 113.154 148.138 113.216C148.936 113.224 150.882 113.143 150.455 113.817C149.42 115.45 147.093 116.872 145.651 118.02C143.827 119.471 141.752 120.822 140.117 122.503C139.104 123.544 138.64 125.177 137.758 126.341C135.774 128.96 133.089 129.867 130.381 131.467C130.027 131.676 131.171 131.743 131.582 131.746C135.098 131.771 138.616 131.746 142.133 131.746"
            stroke="#F9F8F5" stroke-width="3" stroke-linecap="round" />
        <path id="Vector 19"
            d="M38.6741 82.7188C41.107 82.7188 43.3075 83.1427 45.2582 81.5821C47.3022 79.9469 48.7245 78.9478 50.2553 76.7137C51.0035 75.6218 52.0613 75.1221 52.9576 74.2258"
            stroke="#F9F8F5" stroke-width="3" stroke-linecap="round" />
    </g>
</svg>